<mxfile host="app.diagrams.net" modified="2023-11-18T03:41:51.209Z" agent="Mozilla/5.0 (Windows NT 10.0; Win64; x64) AppleWebKit/537.36 (KHTML, like Gecko) Chrome/119.0.0.0 Safari/537.36" etag="r0_tq3oYVOzJQ6SDnBi5" version="22.1.3" type="google">
  <diagram name="Page-1" id="P9j5HyWnrPrdK50CguQb">
    <mxGraphModel grid="1" page="1" gridSize="10" guides="1" tooltips="1" connect="1" arrows="1" fold="1" pageScale="1" pageWidth="850" pageHeight="1100" math="0" shadow="0">
      <root>
        <mxCell id="0" />
        <mxCell id="1" parent="0" />
        <mxCell id="T6LtixlD4VXeEmVeVygl-1" value="EQUIPMENT" style="rounded=0;whiteSpace=wrap;html=1;" vertex="1" parent="1">
          <mxGeometry x="10" y="1067.5" width="120" height="60" as="geometry" />
        </mxCell>
        <mxCell id="T6LtixlD4VXeEmVeVygl-4" value="USER" style="rounded=0;whiteSpace=wrap;html=1;" vertex="1" parent="1">
          <mxGeometry x="465" y="250" width="120" height="60" as="geometry" />
        </mxCell>
        <mxCell id="T6LtixlD4VXeEmVeVygl-5" value="CUSTOMER" style="rounded=0;whiteSpace=wrap;html=1;" vertex="1" parent="1">
          <mxGeometry x="10" y="630" width="120" height="60" as="geometry" />
        </mxCell>
        <mxCell id="T6LtixlD4VXeEmVeVygl-6" value="EMPLOYEE" style="rounded=0;whiteSpace=wrap;html=1;" vertex="1" parent="1">
          <mxGeometry x="910" y="632.5" width="120" height="60" as="geometry" />
        </mxCell>
        <mxCell id="T6LtixlD4VXeEmVeVygl-8" value="IS A" style="triangle;whiteSpace=wrap;html=1;direction=south;" vertex="1" parent="1">
          <mxGeometry x="485" y="425" width="80" height="60" as="geometry" />
        </mxCell>
        <mxCell id="T6LtixlD4VXeEmVeVygl-9" value="" style="endArrow=none;html=1;rounded=0;exitX=0;exitY=0.5;exitDx=0;exitDy=0;entryX=0.5;entryY=1;entryDx=0;entryDy=0;" edge="1" parent="1" source="T6LtixlD4VXeEmVeVygl-8" target="T6LtixlD4VXeEmVeVygl-4">
          <mxGeometry width="50" height="50" relative="1" as="geometry">
            <mxPoint x="410" y="190" as="sourcePoint" />
            <mxPoint x="410" y="320" as="targetPoint" />
          </mxGeometry>
        </mxCell>
        <mxCell id="T6LtixlD4VXeEmVeVygl-10" value="" style="endArrow=none;html=1;rounded=0;entryX=0;entryY=0;entryDx=0;entryDy=0;exitX=0.047;exitY=0.03;exitDx=0;exitDy=0;exitPerimeter=0;" edge="1" parent="1" source="T6LtixlD4VXeEmVeVygl-8" target="T6LtixlD4VXeEmVeVygl-6">
          <mxGeometry width="50" height="50" relative="1" as="geometry">
            <mxPoint x="255" y="560" as="sourcePoint" />
            <mxPoint x="295" y="630" as="targetPoint" />
          </mxGeometry>
        </mxCell>
        <mxCell id="T6LtixlD4VXeEmVeVygl-11" value="" style="endArrow=none;html=1;rounded=0;entryX=1;entryY=0;entryDx=0;entryDy=0;exitX=0.033;exitY=1.005;exitDx=0;exitDy=0;exitPerimeter=0;" edge="1" parent="1" source="T6LtixlD4VXeEmVeVygl-8" target="T6LtixlD4VXeEmVeVygl-5">
          <mxGeometry width="50" height="50" relative="1" as="geometry">
            <mxPoint x="205" y="340" as="sourcePoint" />
            <mxPoint x="255" y="290" as="targetPoint" />
          </mxGeometry>
        </mxCell>
        <mxCell id="T6LtixlD4VXeEmVeVygl-13" value="custID" style="ellipse;whiteSpace=wrap;html=1;" vertex="1" parent="1">
          <mxGeometry x="-210" y="700" width="110" height="45" as="geometry" />
        </mxCell>
        <mxCell id="T6LtixlD4VXeEmVeVygl-15" value="hireDate" style="ellipse;whiteSpace=wrap;html=1;" vertex="1" parent="1">
          <mxGeometry x="925" y="735" width="100" height="50" as="geometry" />
        </mxCell>
        <mxCell id="T6LtixlD4VXeEmVeVygl-16" value="accountBalance" style="ellipse;whiteSpace=wrap;html=1;" vertex="1" parent="1">
          <mxGeometry x="-80" y="800" width="100" height="60" as="geometry" />
        </mxCell>
        <mxCell id="T6LtixlD4VXeEmVeVygl-17" value="empID" style="ellipse;whiteSpace=wrap;html=1;" vertex="1" parent="1">
          <mxGeometry x="1090" y="630" width="110" height="55" as="geometry" />
        </mxCell>
        <mxCell id="T6LtixlD4VXeEmVeVygl-19" value="" style="endArrow=none;html=1;rounded=0;exitX=1;exitY=0.5;exitDx=0;exitDy=0;entryX=0;entryY=0.75;entryDx=0;entryDy=0;" edge="1" parent="1" source="T6LtixlD4VXeEmVeVygl-13" target="T6LtixlD4VXeEmVeVygl-5">
          <mxGeometry width="50" height="50" relative="1" as="geometry">
            <mxPoint x="205" y="610" as="sourcePoint" />
            <mxPoint x="255" y="560" as="targetPoint" />
          </mxGeometry>
        </mxCell>
        <mxCell id="T6LtixlD4VXeEmVeVygl-20" value="" style="endArrow=none;html=1;rounded=0;exitX=1;exitY=0;exitDx=0;exitDy=0;entryX=0.25;entryY=1;entryDx=0;entryDy=0;" edge="1" parent="1" source="T6LtixlD4VXeEmVeVygl-16" target="T6LtixlD4VXeEmVeVygl-5">
          <mxGeometry width="50" height="50" relative="1" as="geometry">
            <mxPoint x="205" y="610" as="sourcePoint" />
            <mxPoint x="255" y="560" as="targetPoint" />
          </mxGeometry>
        </mxCell>
        <mxCell id="T6LtixlD4VXeEmVeVygl-21" value="" style="endArrow=none;html=1;rounded=0;exitX=0.5;exitY=1;exitDx=0;exitDy=0;entryX=0.5;entryY=0;entryDx=0;entryDy=0;" edge="1" parent="1" source="T6LtixlD4VXeEmVeVygl-6" target="T6LtixlD4VXeEmVeVygl-15">
          <mxGeometry width="50" height="50" relative="1" as="geometry">
            <mxPoint x="575" y="610" as="sourcePoint" />
            <mxPoint x="625" y="560" as="targetPoint" />
          </mxGeometry>
        </mxCell>
        <mxCell id="T6LtixlD4VXeEmVeVygl-23" value="" style="endArrow=none;html=1;rounded=0;entryX=0;entryY=0.5;entryDx=0;entryDy=0;exitX=1;exitY=0.5;exitDx=0;exitDy=0;" edge="1" parent="1" source="T6LtixlD4VXeEmVeVygl-6" target="T6LtixlD4VXeEmVeVygl-17">
          <mxGeometry width="50" height="50" relative="1" as="geometry">
            <mxPoint x="575" y="610" as="sourcePoint" />
            <mxPoint x="625" y="560" as="targetPoint" />
          </mxGeometry>
        </mxCell>
        <mxCell id="T6LtixlD4VXeEmVeVygl-24" value="password&lt;span style=&quot;white-space: pre;&quot;&gt;&#x9;&lt;/span&gt;" style="ellipse;whiteSpace=wrap;html=1;" vertex="1" parent="1">
          <mxGeometry x="510" y="115" width="100" height="55" as="geometry" />
        </mxCell>
        <mxCell id="T6LtixlD4VXeEmVeVygl-25" value="firstName" style="ellipse;whiteSpace=wrap;html=1;" vertex="1" parent="1">
          <mxGeometry x="620" y="110" width="110" height="60" as="geometry" />
        </mxCell>
        <mxCell id="T6LtixlD4VXeEmVeVygl-26" value="lastName" style="ellipse;whiteSpace=wrap;html=1;" vertex="1" parent="1">
          <mxGeometry x="630" y="210" width="110" height="50" as="geometry" />
        </mxCell>
        <mxCell id="T6LtixlD4VXeEmVeVygl-27" value="phone" style="ellipse;whiteSpace=wrap;html=1;" vertex="1" parent="1">
          <mxGeometry x="640" y="320" width="110" height="50" as="geometry" />
        </mxCell>
        <mxCell id="T6LtixlD4VXeEmVeVygl-28" value="email" style="ellipse;whiteSpace=wrap;html=1;" vertex="1" parent="1">
          <mxGeometry x="320" y="122.5" width="110" height="40" as="geometry" />
        </mxCell>
        <mxCell id="T6LtixlD4VXeEmVeVygl-31" value="address" style="ellipse;whiteSpace=wrap;html=1;" vertex="1" parent="1">
          <mxGeometry x="290" y="200" width="110" height="50" as="geometry" />
        </mxCell>
        <mxCell id="T6LtixlD4VXeEmVeVygl-32" value="&lt;u&gt;&lt;b&gt;username&lt;/b&gt;&lt;/u&gt;" style="ellipse;whiteSpace=wrap;html=1;" vertex="1" parent="1">
          <mxGeometry x="420" y="55" width="110" height="55" as="geometry" />
        </mxCell>
        <mxCell id="T6LtixlD4VXeEmVeVygl-33" value="userType" style="ellipse;whiteSpace=wrap;html=1;" vertex="1" parent="1">
          <mxGeometry x="280" y="270" width="110" height="50" as="geometry" />
        </mxCell>
        <mxCell id="T6LtixlD4VXeEmVeVygl-34" value="" style="endArrow=none;html=1;rounded=0;entryX=1;entryY=0.5;entryDx=0;entryDy=0;exitX=0;exitY=1;exitDx=0;exitDy=0;" edge="1" parent="1" source="T6LtixlD4VXeEmVeVygl-4" target="T6LtixlD4VXeEmVeVygl-33">
          <mxGeometry width="50" height="50" relative="1" as="geometry">
            <mxPoint x="400" y="280" as="sourcePoint" />
            <mxPoint x="450" y="230" as="targetPoint" />
          </mxGeometry>
        </mxCell>
        <mxCell id="T6LtixlD4VXeEmVeVygl-35" value="" style="endArrow=none;html=1;rounded=0;exitX=1;exitY=0.5;exitDx=0;exitDy=0;entryX=0;entryY=0.5;entryDx=0;entryDy=0;" edge="1" parent="1" source="T6LtixlD4VXeEmVeVygl-31" target="T6LtixlD4VXeEmVeVygl-4">
          <mxGeometry width="50" height="50" relative="1" as="geometry">
            <mxPoint x="400" y="280" as="sourcePoint" />
            <mxPoint x="450" y="230" as="targetPoint" />
          </mxGeometry>
        </mxCell>
        <mxCell id="T6LtixlD4VXeEmVeVygl-36" value="" style="endArrow=none;html=1;rounded=0;entryX=1;entryY=1;entryDx=0;entryDy=0;exitX=0;exitY=0;exitDx=0;exitDy=0;" edge="1" parent="1" source="T6LtixlD4VXeEmVeVygl-4" target="T6LtixlD4VXeEmVeVygl-28">
          <mxGeometry width="50" height="50" relative="1" as="geometry">
            <mxPoint x="400" y="280" as="sourcePoint" />
            <mxPoint x="450" y="230" as="targetPoint" />
          </mxGeometry>
        </mxCell>
        <mxCell id="T6LtixlD4VXeEmVeVygl-37" value="" style="endArrow=none;html=1;rounded=0;entryX=0.5;entryY=1;entryDx=0;entryDy=0;exitX=0.25;exitY=0;exitDx=0;exitDy=0;" edge="1" parent="1" source="T6LtixlD4VXeEmVeVygl-4" target="T6LtixlD4VXeEmVeVygl-32">
          <mxGeometry width="50" height="50" relative="1" as="geometry">
            <mxPoint x="400" y="280" as="sourcePoint" />
            <mxPoint x="450" y="230" as="targetPoint" />
          </mxGeometry>
        </mxCell>
        <mxCell id="T6LtixlD4VXeEmVeVygl-38" value="" style="endArrow=none;html=1;rounded=0;entryX=0.5;entryY=1;entryDx=0;entryDy=0;exitX=0.75;exitY=0;exitDx=0;exitDy=0;" edge="1" parent="1" source="T6LtixlD4VXeEmVeVygl-4" target="T6LtixlD4VXeEmVeVygl-24">
          <mxGeometry width="50" height="50" relative="1" as="geometry">
            <mxPoint x="400" y="280" as="sourcePoint" />
            <mxPoint x="450" y="230" as="targetPoint" />
          </mxGeometry>
        </mxCell>
        <mxCell id="T6LtixlD4VXeEmVeVygl-39" value="" style="endArrow=none;html=1;rounded=0;entryX=0;entryY=1;entryDx=0;entryDy=0;exitX=1;exitY=0;exitDx=0;exitDy=0;" edge="1" parent="1" source="T6LtixlD4VXeEmVeVygl-4" target="T6LtixlD4VXeEmVeVygl-25">
          <mxGeometry width="50" height="50" relative="1" as="geometry">
            <mxPoint x="400" y="280" as="sourcePoint" />
            <mxPoint x="450" y="230" as="targetPoint" />
          </mxGeometry>
        </mxCell>
        <mxCell id="T6LtixlD4VXeEmVeVygl-40" value="" style="endArrow=none;html=1;rounded=0;entryX=0;entryY=0.5;entryDx=0;entryDy=0;exitX=1;exitY=0.5;exitDx=0;exitDy=0;" edge="1" parent="1" source="T6LtixlD4VXeEmVeVygl-4" target="T6LtixlD4VXeEmVeVygl-26">
          <mxGeometry width="50" height="50" relative="1" as="geometry">
            <mxPoint x="400" y="280" as="sourcePoint" />
            <mxPoint x="450" y="230" as="targetPoint" />
          </mxGeometry>
        </mxCell>
        <mxCell id="T6LtixlD4VXeEmVeVygl-41" value="" style="endArrow=none;html=1;rounded=0;entryX=1;entryY=1;entryDx=0;entryDy=0;exitX=0;exitY=0.5;exitDx=0;exitDy=0;" edge="1" parent="1" source="T6LtixlD4VXeEmVeVygl-27" target="T6LtixlD4VXeEmVeVygl-4">
          <mxGeometry width="50" height="50" relative="1" as="geometry">
            <mxPoint x="400" y="280" as="sourcePoint" />
            <mxPoint x="450" y="230" as="targetPoint" />
          </mxGeometry>
        </mxCell>
        <mxCell id="T6LtixlD4VXeEmVeVygl-43" value="ORDERS" style="rhombus;whiteSpace=wrap;html=1;" vertex="1" parent="1">
          <mxGeometry x="30" y="880" width="80" height="80" as="geometry" />
        </mxCell>
        <mxCell id="T6LtixlD4VXeEmVeVygl-52" value="&lt;u&gt;&lt;b&gt;equipID&lt;/b&gt;&lt;/u&gt;" style="ellipse;whiteSpace=wrap;html=1;" vertex="1" parent="1">
          <mxGeometry x="195" y="1120" width="110" height="50" as="geometry" />
        </mxCell>
        <mxCell id="T6LtixlD4VXeEmVeVygl-53" value="equipName" style="ellipse;whiteSpace=wrap;html=1;" vertex="1" parent="1">
          <mxGeometry x="155" y="1200" width="110" height="55" as="geometry" />
        </mxCell>
        <mxCell id="T6LtixlD4VXeEmVeVygl-54" value="description" style="ellipse;whiteSpace=wrap;html=1;" vertex="1" parent="1">
          <mxGeometry x="30" y="1190" width="105" height="55" as="geometry" />
        </mxCell>
        <mxCell id="T6LtixlD4VXeEmVeVygl-55" value="status" style="ellipse;whiteSpace=wrap;html=1;" vertex="1" parent="1">
          <mxGeometry x="-120" y="1170" width="112.5" height="45" as="geometry" />
        </mxCell>
        <mxCell id="T6LtixlD4VXeEmVeVygl-56" value="rentalRate" style="ellipse;whiteSpace=wrap;html=1;" vertex="1" parent="1">
          <mxGeometry x="-62" y="1240" width="110" height="45" as="geometry" />
        </mxCell>
        <mxCell id="T6LtixlD4VXeEmVeVygl-57" value="SENDS" style="rhombus;whiteSpace=wrap;html=1;" vertex="1" parent="1">
          <mxGeometry x="265" y="620" width="80" height="80" as="geometry" />
        </mxCell>
        <mxCell id="T6LtixlD4VXeEmVeVygl-60" value="RESPONDS" style="rhombus;whiteSpace=wrap;html=1;" vertex="1" parent="1">
          <mxGeometry x="710" y="622.5" width="80" height="80" as="geometry" />
        </mxCell>
        <mxCell id="T6LtixlD4VXeEmVeVygl-61" value="MESSAGE" style="rounded=0;whiteSpace=wrap;html=1;" vertex="1" parent="1">
          <mxGeometry x="465" y="630" width="120" height="60" as="geometry" />
        </mxCell>
        <mxCell id="T6LtixlD4VXeEmVeVygl-64" value="receiverID" style="ellipse;whiteSpace=wrap;html=1;" vertex="1" parent="1">
          <mxGeometry x="495" y="742.5" width="105" height="45" as="geometry" />
        </mxCell>
        <mxCell id="T6LtixlD4VXeEmVeVygl-65" value="&lt;u&gt;&lt;b&gt;messageID&lt;/b&gt;&lt;/u&gt;" style="ellipse;whiteSpace=wrap;html=1;" vertex="1" parent="1">
          <mxGeometry x="585" y="780" width="100" height="50" as="geometry" />
        </mxCell>
        <mxCell id="T6LtixlD4VXeEmVeVygl-66" value="senderID" style="ellipse;whiteSpace=wrap;html=1;" vertex="1" parent="1">
          <mxGeometry x="600" y="700" width="100" height="45" as="geometry" />
        </mxCell>
        <mxCell id="T6LtixlD4VXeEmVeVygl-71" value="" style="endArrow=none;html=1;rounded=0;entryX=0;entryY=0;entryDx=0;entryDy=0;exitX=1;exitY=0.25;exitDx=0;exitDy=0;" edge="1" parent="1" source="T6LtixlD4VXeEmVeVygl-1" target="T6LtixlD4VXeEmVeVygl-52">
          <mxGeometry width="50" height="50" relative="1" as="geometry">
            <mxPoint x="170" y="875" as="sourcePoint" />
            <mxPoint x="205" y="795" as="targetPoint" />
          </mxGeometry>
        </mxCell>
        <mxCell id="T6LtixlD4VXeEmVeVygl-74" value="" style="endArrow=none;html=1;rounded=0;exitX=0.25;exitY=1;exitDx=0;exitDy=0;entryX=1;entryY=0;entryDx=0;entryDy=0;" edge="1" parent="1" source="T6LtixlD4VXeEmVeVygl-1" target="T6LtixlD4VXeEmVeVygl-55">
          <mxGeometry width="50" height="50" relative="1" as="geometry">
            <mxPoint x="155" y="845" as="sourcePoint" />
            <mxPoint x="205" y="795" as="targetPoint" />
          </mxGeometry>
        </mxCell>
        <mxCell id="T6LtixlD4VXeEmVeVygl-75" value="" style="endArrow=none;html=1;rounded=0;exitX=0.5;exitY=0;exitDx=0;exitDy=0;entryX=0.5;entryY=1;entryDx=0;entryDy=0;" edge="1" parent="1" source="T6LtixlD4VXeEmVeVygl-56" target="T6LtixlD4VXeEmVeVygl-1">
          <mxGeometry width="50" height="50" relative="1" as="geometry">
            <mxPoint x="155" y="845" as="sourcePoint" />
            <mxPoint x="205" y="795" as="targetPoint" />
          </mxGeometry>
        </mxCell>
        <mxCell id="T6LtixlD4VXeEmVeVygl-77" value="TRANSACTION" style="rounded=0;whiteSpace=wrap;html=1;" vertex="1" parent="1">
          <mxGeometry y="62.5" width="140" height="60" as="geometry" />
        </mxCell>
        <mxCell id="T6LtixlD4VXeEmVeVygl-79" value="INVOICE" style="rounded=0;whiteSpace=wrap;html=1;" vertex="1" parent="1">
          <mxGeometry x="-450" y="360" width="120" height="50" as="geometry" />
        </mxCell>
        <mxCell id="T6LtixlD4VXeEmVeVygl-80" value="HAS" style="rhombus;whiteSpace=wrap;html=1;" vertex="1" parent="1">
          <mxGeometry x="30" y="290" width="80" height="80" as="geometry" />
        </mxCell>
        <mxCell id="T6LtixlD4VXeEmVeVygl-82" value="GET" style="rhombus;whiteSpace=wrap;html=1;" vertex="1" parent="1">
          <mxGeometry x="-245" y="492.5" width="80" height="80" as="geometry" />
        </mxCell>
        <mxCell id="T6LtixlD4VXeEmVeVygl-84" value="rentDate" style="ellipse;whiteSpace=wrap;html=1;" vertex="1" parent="1">
          <mxGeometry x="-580" y="410" width="98" height="40" as="geometry" />
        </mxCell>
        <mxCell id="T6LtixlD4VXeEmVeVygl-85" value="&lt;u&gt;&lt;b&gt;InvoiceNum&lt;/b&gt;&lt;/u&gt;" style="ellipse;whiteSpace=wrap;html=1;" vertex="1" parent="1">
          <mxGeometry x="-590" y="340" width="100" height="45" as="geometry" />
        </mxCell>
        <mxCell id="T6LtixlD4VXeEmVeVygl-86" value="custID" style="ellipse;whiteSpace=wrap;html=1;" vertex="1" parent="1">
          <mxGeometry x="-570" y="280" width="98" height="40" as="geometry" />
        </mxCell>
        <mxCell id="T6LtixlD4VXeEmVeVygl-87" value="" style="endArrow=none;html=1;rounded=0;entryX=1;entryY=1;entryDx=0;entryDy=0;exitX=0;exitY=0;exitDx=0;exitDy=0;" edge="1" parent="1" source="T6LtixlD4VXeEmVeVygl-79" target="T6LtixlD4VXeEmVeVygl-86">
          <mxGeometry width="50" height="50" relative="1" as="geometry">
            <mxPoint x="90" y="600" as="sourcePoint" />
            <mxPoint x="140" y="550" as="targetPoint" />
          </mxGeometry>
        </mxCell>
        <mxCell id="T6LtixlD4VXeEmVeVygl-89" value="" style="endArrow=none;html=1;rounded=0;entryX=1;entryY=0;entryDx=0;entryDy=0;exitX=0;exitY=0.75;exitDx=0;exitDy=0;" edge="1" parent="1" source="T6LtixlD4VXeEmVeVygl-79" target="T6LtixlD4VXeEmVeVygl-84">
          <mxGeometry width="50" height="50" relative="1" as="geometry">
            <mxPoint x="90" y="600" as="sourcePoint" />
            <mxPoint x="140" y="550" as="targetPoint" />
          </mxGeometry>
        </mxCell>
        <mxCell id="T6LtixlD4VXeEmVeVygl-90" value="" style="endArrow=none;html=1;rounded=0;entryX=1;entryY=0.5;entryDx=0;entryDy=0;exitX=0;exitY=0.5;exitDx=0;exitDy=0;" edge="1" parent="1" source="T6LtixlD4VXeEmVeVygl-79" target="T6LtixlD4VXeEmVeVygl-85">
          <mxGeometry width="50" height="50" relative="1" as="geometry">
            <mxPoint x="90" y="600" as="sourcePoint" />
            <mxPoint x="140" y="550" as="targetPoint" />
          </mxGeometry>
        </mxCell>
        <mxCell id="T6LtixlD4VXeEmVeVygl-92" value="custID" style="ellipse;whiteSpace=wrap;html=1;" vertex="1" parent="1">
          <mxGeometry x="60" y="-80" width="120" height="70" as="geometry" />
        </mxCell>
        <mxCell id="T6LtixlD4VXeEmVeVygl-93" value="equipID" style="ellipse;whiteSpace=wrap;html=1;" vertex="1" parent="1">
          <mxGeometry x="-80" y="-70" width="110" height="70" as="geometry" />
        </mxCell>
        <mxCell id="T6LtixlD4VXeEmVeVygl-94" value="&lt;b&gt;&lt;u&gt;ReceiptNum&lt;/u&gt;&lt;/b&gt;" style="ellipse;whiteSpace=wrap;html=1;" vertex="1" parent="1">
          <mxGeometry x="-210" y="10" width="110" height="70" as="geometry" />
        </mxCell>
        <mxCell id="T6LtixlD4VXeEmVeVygl-98" value="" style="endArrow=none;html=1;rounded=0;exitX=0.5;exitY=1;exitDx=0;exitDy=0;entryX=0.75;entryY=0;entryDx=0;entryDy=0;" edge="1" parent="1" source="T6LtixlD4VXeEmVeVygl-92" target="T6LtixlD4VXeEmVeVygl-77">
          <mxGeometry width="50" height="50" relative="1" as="geometry">
            <mxPoint x="150" y="530" as="sourcePoint" />
            <mxPoint x="200" y="480" as="targetPoint" />
          </mxGeometry>
        </mxCell>
        <mxCell id="T6LtixlD4VXeEmVeVygl-99" value="" style="endArrow=none;html=1;rounded=0;entryX=0.25;entryY=0;entryDx=0;entryDy=0;exitX=1;exitY=1;exitDx=0;exitDy=0;" edge="1" parent="1" source="T6LtixlD4VXeEmVeVygl-93" target="T6LtixlD4VXeEmVeVygl-77">
          <mxGeometry width="50" height="50" relative="1" as="geometry">
            <mxPoint x="-110" y="220" as="sourcePoint" />
            <mxPoint x="200" y="480" as="targetPoint" />
          </mxGeometry>
        </mxCell>
        <mxCell id="T6LtixlD4VXeEmVeVygl-100" value="" style="endArrow=none;html=1;rounded=0;exitX=1;exitY=0.5;exitDx=0;exitDy=0;entryX=0;entryY=0.5;entryDx=0;entryDy=0;" edge="1" parent="1" source="T6LtixlD4VXeEmVeVygl-94" target="T6LtixlD4VXeEmVeVygl-77">
          <mxGeometry width="50" height="50" relative="1" as="geometry">
            <mxPoint x="130" y="550" as="sourcePoint" />
            <mxPoint x="-15" y="320" as="targetPoint" />
          </mxGeometry>
        </mxCell>
        <mxCell id="T6LtixlD4VXeEmVeVygl-103" value="" style="endArrow=none;html=1;rounded=0;exitX=0.75;exitY=1;exitDx=0;exitDy=0;entryX=0.5;entryY=0;entryDx=0;entryDy=0;" edge="1" parent="1" source="T6LtixlD4VXeEmVeVygl-1" target="T6LtixlD4VXeEmVeVygl-54">
          <mxGeometry width="50" height="50" relative="1" as="geometry">
            <mxPoint x="120" y="795" as="sourcePoint" />
            <mxPoint x="170" y="745" as="targetPoint" />
          </mxGeometry>
        </mxCell>
        <mxCell id="T6LtixlD4VXeEmVeVygl-109" value="empRole" style="ellipse;whiteSpace=wrap;html=1;" vertex="1" parent="1">
          <mxGeometry x="1080" y="730" width="105" height="50" as="geometry" />
        </mxCell>
        <mxCell id="T6LtixlD4VXeEmVeVygl-110" value="" style="endArrow=none;html=1;rounded=0;exitX=1;exitY=1;exitDx=0;exitDy=0;entryX=0;entryY=0;entryDx=0;entryDy=0;" edge="1" parent="1" source="T6LtixlD4VXeEmVeVygl-6" target="T6LtixlD4VXeEmVeVygl-109">
          <mxGeometry width="50" height="50" relative="1" as="geometry">
            <mxPoint x="120" y="770" as="sourcePoint" />
            <mxPoint x="170" y="720" as="targetPoint" />
          </mxGeometry>
        </mxCell>
        <mxCell id="T6LtixlD4VXeEmVeVygl-111" value="" style="shape=link;html=1;rounded=0;exitX=0.5;exitY=1;exitDx=0;exitDy=0;entryX=0.5;entryY=0;entryDx=0;entryDy=0;" edge="1" parent="1" source="T6LtixlD4VXeEmVeVygl-77" target="T6LtixlD4VXeEmVeVygl-80">
          <mxGeometry relative="1" as="geometry">
            <mxPoint x="70" y="570" as="sourcePoint" />
            <mxPoint x="230" y="570" as="targetPoint" />
          </mxGeometry>
        </mxCell>
        <mxCell id="T6LtixlD4VXeEmVeVygl-112" value="" style="resizable=0;html=1;whiteSpace=wrap;align=right;verticalAlign=bottom;" connectable="0" vertex="1" parent="T6LtixlD4VXeEmVeVygl-111">
          <mxGeometry x="1" relative="1" as="geometry" />
        </mxCell>
        <mxCell id="T6LtixlD4VXeEmVeVygl-113" value="" style="shape=link;html=1;rounded=0;exitX=1;exitY=1;exitDx=0;exitDy=0;entryX=0;entryY=0;entryDx=0;entryDy=0;" edge="1" parent="1" source="T6LtixlD4VXeEmVeVygl-79" target="T6LtixlD4VXeEmVeVygl-82">
          <mxGeometry relative="1" as="geometry">
            <mxPoint x="70" y="570" as="sourcePoint" />
            <mxPoint x="230" y="570" as="targetPoint" />
          </mxGeometry>
        </mxCell>
        <mxCell id="T6LtixlD4VXeEmVeVygl-116" value="" style="endArrow=classic;html=1;rounded=0;exitX=1;exitY=1;exitDx=0;exitDy=0;entryX=0;entryY=0;entryDx=0;entryDy=0;" edge="1" parent="1" source="T6LtixlD4VXeEmVeVygl-82" target="T6LtixlD4VXeEmVeVygl-5">
          <mxGeometry width="50" height="50" relative="1" as="geometry">
            <mxPoint x="120" y="590" as="sourcePoint" />
            <mxPoint x="170" y="540" as="targetPoint" />
          </mxGeometry>
        </mxCell>
        <mxCell id="T6LtixlD4VXeEmVeVygl-117" value="" style="endArrow=classic;html=1;rounded=0;exitX=0.5;exitY=1;exitDx=0;exitDy=0;entryX=0.5;entryY=0;entryDx=0;entryDy=0;" edge="1" parent="1" source="T6LtixlD4VXeEmVeVygl-80" target="T6LtixlD4VXeEmVeVygl-5">
          <mxGeometry width="50" height="50" relative="1" as="geometry">
            <mxPoint x="120" y="590" as="sourcePoint" />
            <mxPoint x="170" y="540" as="targetPoint" />
          </mxGeometry>
        </mxCell>
        <mxCell id="T6LtixlD4VXeEmVeVygl-118" value="" style="endArrow=classic;html=1;rounded=0;entryX=0.5;entryY=1;entryDx=0;entryDy=0;exitX=0.5;exitY=0;exitDx=0;exitDy=0;" edge="1" parent="1" source="T6LtixlD4VXeEmVeVygl-43" target="T6LtixlD4VXeEmVeVygl-5">
          <mxGeometry width="50" height="50" relative="1" as="geometry">
            <mxPoint x="120" y="760" as="sourcePoint" />
            <mxPoint x="170" y="710" as="targetPoint" />
          </mxGeometry>
        </mxCell>
        <mxCell id="JTTTcwfOcglsDn1vPQLV-1" value="EVENT" style="rounded=0;whiteSpace=wrap;html=1;" vertex="1" parent="1">
          <mxGeometry x="-650" y="632.5" width="120" height="60" as="geometry" />
        </mxCell>
        <mxCell id="JTTTcwfOcglsDn1vPQLV-2" value="&lt;u&gt;eventID&lt;/u&gt;" style="ellipse;whiteSpace=wrap;html=1;" vertex="1" parent="1">
          <mxGeometry x="-740" y="510" width="120" height="45" as="geometry" />
        </mxCell>
        <mxCell id="JTTTcwfOcglsDn1vPQLV-3" value="date" style="ellipse;whiteSpace=wrap;html=1;" vertex="1" parent="1">
          <mxGeometry x="-820" y="570" width="120" height="50" as="geometry" />
        </mxCell>
        <mxCell id="JTTTcwfOcglsDn1vPQLV-4" value="location" style="ellipse;whiteSpace=wrap;html=1;" vertex="1" parent="1">
          <mxGeometry x="-840" y="670" width="120" height="40" as="geometry" />
        </mxCell>
        <mxCell id="JTTTcwfOcglsDn1vPQLV-5" value="eventName" style="ellipse;whiteSpace=wrap;html=1;" vertex="1" parent="1">
          <mxGeometry x="-750" y="742.5" width="120" height="40" as="geometry" />
        </mxCell>
        <mxCell id="JTTTcwfOcglsDn1vPQLV-6" value="" style="endArrow=none;html=1;rounded=0;exitX=1;exitY=0;exitDx=0;exitDy=0;entryX=0.5;entryY=1;entryDx=0;entryDy=0;" edge="1" parent="1" source="JTTTcwfOcglsDn1vPQLV-5" target="JTTTcwfOcglsDn1vPQLV-1">
          <mxGeometry width="50" height="50" relative="1" as="geometry">
            <mxPoint x="-150" y="740" as="sourcePoint" />
            <mxPoint x="-100" y="690" as="targetPoint" />
          </mxGeometry>
        </mxCell>
        <mxCell id="JTTTcwfOcglsDn1vPQLV-8" value="" style="endArrow=none;html=1;rounded=0;exitX=1;exitY=1;exitDx=0;exitDy=0;entryX=0;entryY=0.5;entryDx=0;entryDy=0;" edge="1" parent="1" source="JTTTcwfOcglsDn1vPQLV-3" target="JTTTcwfOcglsDn1vPQLV-1">
          <mxGeometry width="50" height="50" relative="1" as="geometry">
            <mxPoint x="-150" y="740" as="sourcePoint" />
            <mxPoint x="-100" y="690" as="targetPoint" />
          </mxGeometry>
        </mxCell>
        <mxCell id="JTTTcwfOcglsDn1vPQLV-9" value="" style="endArrow=none;html=1;rounded=0;exitX=1;exitY=1;exitDx=0;exitDy=0;entryX=0.5;entryY=0;entryDx=0;entryDy=0;" edge="1" parent="1" source="JTTTcwfOcglsDn1vPQLV-2" target="JTTTcwfOcglsDn1vPQLV-1">
          <mxGeometry width="50" height="50" relative="1" as="geometry">
            <mxPoint x="-150" y="740" as="sourcePoint" />
            <mxPoint x="-100" y="690" as="targetPoint" />
          </mxGeometry>
        </mxCell>
        <mxCell id="JTTTcwfOcglsDn1vPQLV-10" value="HAS" style="rhombus;whiteSpace=wrap;html=1;" vertex="1" parent="1">
          <mxGeometry x="-330" y="620" width="80" height="80" as="geometry" />
        </mxCell>
        <mxCell id="JTTTcwfOcglsDn1vPQLV-12" value="" style="shape=link;html=1;rounded=0;exitX=1;exitY=0.5;exitDx=0;exitDy=0;entryX=0;entryY=0.5;entryDx=0;entryDy=0;" edge="1" parent="1" source="JTTTcwfOcglsDn1vPQLV-1" target="JTTTcwfOcglsDn1vPQLV-10">
          <mxGeometry relative="1" as="geometry">
            <mxPoint x="-300" y="530" as="sourcePoint" />
            <mxPoint x="-235" y="580" as="targetPoint" />
          </mxGeometry>
        </mxCell>
        <mxCell id="JTTTcwfOcglsDn1vPQLV-13" value="" style="endArrow=classic;html=1;rounded=0;entryX=0;entryY=0.5;entryDx=0;entryDy=0;exitX=1;exitY=0.5;exitDx=0;exitDy=0;" edge="1" parent="1" source="JTTTcwfOcglsDn1vPQLV-10" target="T6LtixlD4VXeEmVeVygl-5">
          <mxGeometry width="50" height="50" relative="1" as="geometry">
            <mxPoint x="-150" y="740" as="sourcePoint" />
            <mxPoint x="-100" y="690" as="targetPoint" />
          </mxGeometry>
        </mxCell>
        <mxCell id="JTTTcwfOcglsDn1vPQLV-14" value="" style="shape=link;html=1;rounded=0;exitX=0.5;exitY=1;exitDx=0;exitDy=0;entryX=0.5;entryY=0;entryDx=0;entryDy=0;" edge="1" parent="1" source="T6LtixlD4VXeEmVeVygl-43" target="T6LtixlD4VXeEmVeVygl-1">
          <mxGeometry relative="1" as="geometry">
            <mxPoint x="115" y="850" as="sourcePoint" />
            <mxPoint x="180" y="900" as="targetPoint" />
          </mxGeometry>
        </mxCell>
        <mxCell id="1ppoVVJv_H_xYscEYa3i-1" value="" style="shape=link;html=1;rounded=0;exitX=1;exitY=0.5;exitDx=0;exitDy=0;entryX=0;entryY=0.5;entryDx=0;entryDy=0;" edge="1" parent="1" source="T6LtixlD4VXeEmVeVygl-57" target="T6LtixlD4VXeEmVeVygl-61">
          <mxGeometry relative="1" as="geometry">
            <mxPoint x="85" y="810" as="sourcePoint" />
            <mxPoint x="85" y="905" as="targetPoint" />
          </mxGeometry>
        </mxCell>
        <mxCell id="1ppoVVJv_H_xYscEYa3i-2" value="" style="shape=link;html=1;rounded=0;entryX=1;entryY=0.5;entryDx=0;entryDy=0;exitX=0;exitY=0.5;exitDx=0;exitDy=0;" edge="1" parent="1" source="T6LtixlD4VXeEmVeVygl-60" target="T6LtixlD4VXeEmVeVygl-61">
          <mxGeometry relative="1" as="geometry">
            <mxPoint x="610" y="770" as="sourcePoint" />
            <mxPoint x="95" y="915" as="targetPoint" />
          </mxGeometry>
        </mxCell>
        <mxCell id="1ppoVVJv_H_xYscEYa3i-3" value="" style="endArrow=classic;html=1;rounded=0;entryX=1;entryY=0.5;entryDx=0;entryDy=0;exitX=0;exitY=0.5;exitDx=0;exitDy=0;" edge="1" parent="1" source="T6LtixlD4VXeEmVeVygl-57" target="T6LtixlD4VXeEmVeVygl-5">
          <mxGeometry width="50" height="50" relative="1" as="geometry">
            <mxPoint x="310" y="660" as="sourcePoint" />
            <mxPoint x="360" y="610" as="targetPoint" />
          </mxGeometry>
        </mxCell>
        <mxCell id="1ppoVVJv_H_xYscEYa3i-5" value="" style="endArrow=classic;html=1;rounded=0;entryX=0;entryY=0.5;entryDx=0;entryDy=0;exitX=1;exitY=0.5;exitDx=0;exitDy=0;" edge="1" parent="1" source="T6LtixlD4VXeEmVeVygl-60" target="T6LtixlD4VXeEmVeVygl-6">
          <mxGeometry width="50" height="50" relative="1" as="geometry">
            <mxPoint x="230" y="490" as="sourcePoint" />
            <mxPoint x="280" y="440" as="targetPoint" />
          </mxGeometry>
        </mxCell>
        <mxCell id="4yM-c1DbJVfQlNQjD50u-1" value="cost" style="ellipse;whiteSpace=wrap;html=1;" vertex="1" parent="1">
          <mxGeometry x="-510" y="470" width="105" height="40" as="geometry" />
        </mxCell>
        <mxCell id="4yM-c1DbJVfQlNQjD50u-2" value="" style="endArrow=none;html=1;rounded=0;entryX=0.5;entryY=0;entryDx=0;entryDy=0;exitX=0.11;exitY=1.016;exitDx=0;exitDy=0;exitPerimeter=0;" edge="1" parent="1" source="T6LtixlD4VXeEmVeVygl-79" target="4yM-c1DbJVfQlNQjD50u-1">
          <mxGeometry width="50" height="50" relative="1" as="geometry">
            <mxPoint x="-335" y="490" as="sourcePoint" />
            <mxPoint x="-377" y="506" as="targetPoint" />
          </mxGeometry>
        </mxCell>
        <mxCell id="4yM-c1DbJVfQlNQjD50u-3" value="&lt;b&gt;&lt;u&gt;username&lt;/u&gt;&lt;/b&gt;" style="ellipse;whiteSpace=wrap;html=1;" vertex="1" parent="1">
          <mxGeometry x="950" y="540" width="120" height="50" as="geometry" />
        </mxCell>
        <mxCell id="4yM-c1DbJVfQlNQjD50u-4" value="" style="endArrow=none;html=1;rounded=0;entryX=0.5;entryY=1;entryDx=0;entryDy=0;exitX=0.5;exitY=0;exitDx=0;exitDy=0;" edge="1" parent="1" source="T6LtixlD4VXeEmVeVygl-6" target="4yM-c1DbJVfQlNQjD50u-3">
          <mxGeometry width="50" height="50" relative="1" as="geometry">
            <mxPoint x="795" y="670" as="sourcePoint" />
            <mxPoint x="838" y="670" as="targetPoint" />
          </mxGeometry>
        </mxCell>
        <mxCell id="4yM-c1DbJVfQlNQjD50u-7" value="&lt;u&gt;&lt;b&gt;username&lt;/b&gt;&lt;/u&gt;" style="ellipse;whiteSpace=wrap;html=1;" vertex="1" parent="1">
          <mxGeometry x="-97" y="730" width="97.5" height="50" as="geometry" />
        </mxCell>
        <mxCell id="4yM-c1DbJVfQlNQjD50u-9" value="" style="endArrow=none;html=1;rounded=0;exitX=1;exitY=0;exitDx=0;exitDy=0;entryX=0;entryY=1;entryDx=0;entryDy=0;" edge="1" parent="1" source="4yM-c1DbJVfQlNQjD50u-7" target="T6LtixlD4VXeEmVeVygl-5">
          <mxGeometry width="50" height="50" relative="1" as="geometry">
            <mxPoint x="120" y="740" as="sourcePoint" />
            <mxPoint x="170" y="690" as="targetPoint" />
          </mxGeometry>
        </mxCell>
        <mxCell id="4yM-c1DbJVfQlNQjD50u-11" value="category" style="ellipse;whiteSpace=wrap;html=1;" vertex="1" parent="1">
          <mxGeometry x="-150" y="1090" width="112.5" height="45" as="geometry" />
        </mxCell>
        <mxCell id="4yM-c1DbJVfQlNQjD50u-12" value="" style="endArrow=none;html=1;rounded=0;exitX=1;exitY=0.5;exitDx=0;exitDy=0;entryX=0;entryY=0.5;entryDx=0;entryDy=0;" edge="1" parent="1" source="4yM-c1DbJVfQlNQjD50u-11" target="T6LtixlD4VXeEmVeVygl-1">
          <mxGeometry width="50" height="50" relative="1" as="geometry">
            <mxPoint x="-10" y="1010" as="sourcePoint" />
            <mxPoint x="40" y="960" as="targetPoint" />
          </mxGeometry>
        </mxCell>
        <mxCell id="4yM-c1DbJVfQlNQjD50u-13" value="" style="endArrow=none;html=1;rounded=0;exitX=0;exitY=0;exitDx=0;exitDy=0;entryX=1;entryY=0.75;entryDx=0;entryDy=0;" edge="1" parent="1" source="T6LtixlD4VXeEmVeVygl-53" target="T6LtixlD4VXeEmVeVygl-1">
          <mxGeometry width="50" height="50" relative="1" as="geometry">
            <mxPoint x="-10" y="1010" as="sourcePoint" />
            <mxPoint x="40" y="960" as="targetPoint" />
          </mxGeometry>
        </mxCell>
        <mxCell id="4yM-c1DbJVfQlNQjD50u-16" value="" style="shape=link;html=1;rounded=0;entryX=1;entryY=0;entryDx=0;entryDy=0;exitX=0.5;exitY=1;exitDx=0;exitDy=0;" edge="1" parent="1" source="4yM-c1DbJVfQlNQjD50u-18" target="T6LtixlD4VXeEmVeVygl-82">
          <mxGeometry relative="1" as="geometry">
            <mxPoint x="-100" y="480" as="sourcePoint" />
            <mxPoint x="-107.5" y="525" as="targetPoint" />
          </mxGeometry>
        </mxCell>
        <mxCell id="4yM-c1DbJVfQlNQjD50u-18" value="RECEIPT" style="rounded=0;whiteSpace=wrap;html=1;" vertex="1" parent="1">
          <mxGeometry x="-190" y="370" width="120" height="50" as="geometry" />
        </mxCell>
        <mxCell id="4yM-c1DbJVfQlNQjD50u-19" value="payType" style="ellipse;whiteSpace=wrap;html=1;" vertex="1" parent="1">
          <mxGeometry x="-288" y="352.5" width="98" height="40" as="geometry" />
        </mxCell>
        <mxCell id="4yM-c1DbJVfQlNQjD50u-20" value="&lt;u&gt;&lt;b&gt;ReceiptNum&lt;/b&gt;&lt;/u&gt;" style="ellipse;whiteSpace=wrap;html=1;" vertex="1" parent="1">
          <mxGeometry x="-107.5" y="280" width="100" height="45" as="geometry" />
        </mxCell>
        <mxCell id="4yM-c1DbJVfQlNQjD50u-22" value="payDate" style="ellipse;whiteSpace=wrap;html=1;" vertex="1" parent="1">
          <mxGeometry x="-160" y="220" width="98" height="40" as="geometry" />
        </mxCell>
        <mxCell id="4yM-c1DbJVfQlNQjD50u-23" value="payAmt" style="ellipse;whiteSpace=wrap;html=1;" vertex="1" parent="1">
          <mxGeometry x="-235.5" y="275" width="98" height="40" as="geometry" />
        </mxCell>
        <mxCell id="4yM-c1DbJVfQlNQjD50u-24" value="" style="endArrow=none;html=1;rounded=0;entryX=0.75;entryY=0;entryDx=0;entryDy=0;exitX=0.5;exitY=1;exitDx=0;exitDy=0;" edge="1" parent="1" source="4yM-c1DbJVfQlNQjD50u-20" target="4yM-c1DbJVfQlNQjD50u-18">
          <mxGeometry width="50" height="50" relative="1" as="geometry">
            <mxPoint x="10" y="280" as="sourcePoint" />
            <mxPoint x="-30" y="450" as="targetPoint" />
          </mxGeometry>
        </mxCell>
        <mxCell id="4yM-c1DbJVfQlNQjD50u-25" value="" style="endArrow=none;html=1;rounded=0;exitX=0.5;exitY=1;exitDx=0;exitDy=0;entryX=0.5;entryY=0;entryDx=0;entryDy=0;" edge="1" parent="1" source="4yM-c1DbJVfQlNQjD50u-22" target="4yM-c1DbJVfQlNQjD50u-18">
          <mxGeometry width="50" height="50" relative="1" as="geometry">
            <mxPoint x="60" y="490" as="sourcePoint" />
            <mxPoint x="110" y="440" as="targetPoint" />
          </mxGeometry>
        </mxCell>
        <mxCell id="4yM-c1DbJVfQlNQjD50u-26" value="" style="endArrow=none;html=1;rounded=0;exitX=0.5;exitY=1;exitDx=0;exitDy=0;entryX=0;entryY=0.5;entryDx=0;entryDy=0;" edge="1" parent="1" source="4yM-c1DbJVfQlNQjD50u-19" target="4yM-c1DbJVfQlNQjD50u-18">
          <mxGeometry width="50" height="50" relative="1" as="geometry">
            <mxPoint x="60" y="530" as="sourcePoint" />
            <mxPoint x="110" y="480" as="targetPoint" />
          </mxGeometry>
        </mxCell>
        <mxCell id="4yM-c1DbJVfQlNQjD50u-27" value="" style="endArrow=none;html=1;rounded=0;entryX=0.5;entryY=1;entryDx=0;entryDy=0;exitX=0.25;exitY=0;exitDx=0;exitDy=0;" edge="1" parent="1" source="4yM-c1DbJVfQlNQjD50u-18" target="4yM-c1DbJVfQlNQjD50u-23">
          <mxGeometry width="50" height="50" relative="1" as="geometry">
            <mxPoint x="60" y="530" as="sourcePoint" />
            <mxPoint x="110" y="480" as="targetPoint" />
          </mxGeometry>
        </mxCell>
        <mxCell id="4yM-c1DbJVfQlNQjD50u-28" value="returnDate" style="ellipse;whiteSpace=wrap;html=1;" vertex="1" parent="1">
          <mxGeometry x="-496.5" y="220" width="98" height="40" as="geometry" />
        </mxCell>
        <mxCell id="4yM-c1DbJVfQlNQjD50u-29" value="" style="endArrow=none;html=1;rounded=0;exitX=0.5;exitY=0;exitDx=0;exitDy=0;entryX=0.5;entryY=1;entryDx=0;entryDy=0;" edge="1" parent="1" source="T6LtixlD4VXeEmVeVygl-79" target="4yM-c1DbJVfQlNQjD50u-28">
          <mxGeometry width="50" height="50" relative="1" as="geometry">
            <mxPoint x="30" y="530" as="sourcePoint" />
            <mxPoint x="80" y="480" as="targetPoint" />
          </mxGeometry>
        </mxCell>
        <mxCell id="4yM-c1DbJVfQlNQjD50u-30" value="content" style="ellipse;whiteSpace=wrap;html=1;" vertex="1" parent="1">
          <mxGeometry x="425" y="792.5" width="105" height="55" as="geometry" />
        </mxCell>
        <mxCell id="4yM-c1DbJVfQlNQjD50u-31" value="timestamp" style="ellipse;whiteSpace=wrap;html=1;" vertex="1" parent="1">
          <mxGeometry x="360" y="740" width="105" height="45" as="geometry" />
        </mxCell>
        <mxCell id="4yM-c1DbJVfQlNQjD50u-32" value="" style="endArrow=none;html=1;rounded=0;entryX=0.5;entryY=0;entryDx=0;entryDy=0;exitX=1;exitY=0.75;exitDx=0;exitDy=0;" edge="1" parent="1" source="T6LtixlD4VXeEmVeVygl-61" target="T6LtixlD4VXeEmVeVygl-66">
          <mxGeometry width="50" height="50" relative="1" as="geometry">
            <mxPoint x="280" y="760" as="sourcePoint" />
            <mxPoint x="330" y="710" as="targetPoint" />
          </mxGeometry>
        </mxCell>
        <mxCell id="4yM-c1DbJVfQlNQjD50u-33" value="" style="endArrow=none;html=1;rounded=0;entryX=0.5;entryY=0;entryDx=0;entryDy=0;exitX=0.75;exitY=1;exitDx=0;exitDy=0;" edge="1" parent="1" source="T6LtixlD4VXeEmVeVygl-61" target="T6LtixlD4VXeEmVeVygl-65">
          <mxGeometry width="50" height="50" relative="1" as="geometry">
            <mxPoint x="280" y="760" as="sourcePoint" />
            <mxPoint x="330" y="710" as="targetPoint" />
          </mxGeometry>
        </mxCell>
        <mxCell id="4yM-c1DbJVfQlNQjD50u-34" value="" style="endArrow=none;html=1;rounded=0;entryX=0.5;entryY=1;entryDx=0;entryDy=0;exitX=0.5;exitY=0;exitDx=0;exitDy=0;" edge="1" parent="1" source="T6LtixlD4VXeEmVeVygl-64" target="T6LtixlD4VXeEmVeVygl-61">
          <mxGeometry width="50" height="50" relative="1" as="geometry">
            <mxPoint x="280" y="760" as="sourcePoint" />
            <mxPoint x="330" y="710" as="targetPoint" />
          </mxGeometry>
        </mxCell>
        <mxCell id="4yM-c1DbJVfQlNQjD50u-35" value="" style="endArrow=none;html=1;rounded=0;exitX=0.5;exitY=0;exitDx=0;exitDy=0;entryX=0.25;entryY=1;entryDx=0;entryDy=0;" edge="1" parent="1" source="4yM-c1DbJVfQlNQjD50u-30" target="T6LtixlD4VXeEmVeVygl-61">
          <mxGeometry width="50" height="50" relative="1" as="geometry">
            <mxPoint x="280" y="760" as="sourcePoint" />
            <mxPoint x="330" y="710" as="targetPoint" />
          </mxGeometry>
        </mxCell>
        <mxCell id="4yM-c1DbJVfQlNQjD50u-36" value="" style="endArrow=none;html=1;rounded=0;exitX=0.5;exitY=0;exitDx=0;exitDy=0;entryX=0;entryY=0.75;entryDx=0;entryDy=0;" edge="1" parent="1" source="4yM-c1DbJVfQlNQjD50u-31" target="T6LtixlD4VXeEmVeVygl-61">
          <mxGeometry width="50" height="50" relative="1" as="geometry">
            <mxPoint x="280" y="760" as="sourcePoint" />
            <mxPoint x="330" y="710" as="targetPoint" />
          </mxGeometry>
        </mxCell>
        <mxCell id="_Ickoj4FJPJj25-dtZfV-1" value="" style="endArrow=none;html=1;rounded=0;exitX=1;exitY=0.5;exitDx=0;exitDy=0;entryX=0;entryY=0.75;entryDx=0;entryDy=0;" edge="1" parent="1" source="JTTTcwfOcglsDn1vPQLV-4" target="JTTTcwfOcglsDn1vPQLV-1">
          <mxGeometry width="50" height="50" relative="1" as="geometry">
            <mxPoint x="-530" y="590" as="sourcePoint" />
            <mxPoint x="-480" y="540" as="targetPoint" />
          </mxGeometry>
        </mxCell>
        <mxCell id="_Ickoj4FJPJj25-dtZfV-4" value="" style="shape=link;html=1;rounded=0;exitX=1;exitY=1;exitDx=0;exitDy=0;entryX=0.5;entryY=0;entryDx=0;entryDy=0;" edge="1" parent="1" source="T6LtixlD4VXeEmVeVygl-5" target="_Ickoj4FJPJj25-dtZfV-5">
          <mxGeometry relative="1" as="geometry">
            <mxPoint x="140" y="727.5" as="sourcePoint" />
            <mxPoint x="180" y="750" as="targetPoint" />
          </mxGeometry>
        </mxCell>
        <mxCell id="_Ickoj4FJPJj25-dtZfV-5" value="TRANSMITS" style="rhombus;whiteSpace=wrap;html=1;" vertex="1" parent="1">
          <mxGeometry x="170" y="745" width="90" height="80" as="geometry" />
        </mxCell>
        <mxCell id="_Ickoj4FJPJj25-dtZfV-7" value="CUSTOMER_MESSAGE" style="rounded=0;whiteSpace=wrap;html=1;" vertex="1" parent="1">
          <mxGeometry x="185" y="890" width="160" height="60" as="geometry" />
        </mxCell>
        <mxCell id="_Ickoj4FJPJj25-dtZfV-10" value="" style="shape=link;html=1;rounded=0;exitX=0.5;exitY=1;exitDx=0;exitDy=0;entryX=0.5;entryY=0;entryDx=0;entryDy=0;" edge="1" parent="1" source="_Ickoj4FJPJj25-dtZfV-5" target="_Ickoj4FJPJj25-dtZfV-7">
          <mxGeometry relative="1" as="geometry">
            <mxPoint x="220" y="795" as="sourcePoint" />
            <mxPoint x="310" y="815" as="targetPoint" />
          </mxGeometry>
        </mxCell>
        <mxCell id="_Ickoj4FJPJj25-dtZfV-14" value="&lt;u&gt;&lt;b&gt;message_ID&lt;/b&gt;&lt;/u&gt;" style="ellipse;whiteSpace=wrap;html=1;" vertex="1" parent="1">
          <mxGeometry x="155" y="990" width="110" height="50" as="geometry" />
        </mxCell>
        <mxCell id="_Ickoj4FJPJj25-dtZfV-16" value="&lt;u&gt;&lt;b&gt;custID&lt;/b&gt;&lt;/u&gt;" style="ellipse;whiteSpace=wrap;html=1;" vertex="1" parent="1">
          <mxGeometry x="310" y="990" width="110" height="50" as="geometry" />
        </mxCell>
        <mxCell id="_Ickoj4FJPJj25-dtZfV-17" value="" style="endArrow=none;html=1;rounded=0;exitX=0.5;exitY=0;exitDx=0;exitDy=0;entryX=0.25;entryY=1;entryDx=0;entryDy=0;" edge="1" parent="1" source="_Ickoj4FJPJj25-dtZfV-14" target="_Ickoj4FJPJj25-dtZfV-7">
          <mxGeometry width="50" height="50" relative="1" as="geometry">
            <mxPoint x="180" y="980" as="sourcePoint" />
            <mxPoint x="230" y="930" as="targetPoint" />
          </mxGeometry>
        </mxCell>
        <mxCell id="_Ickoj4FJPJj25-dtZfV-18" value="" style="endArrow=none;html=1;rounded=0;exitX=0.5;exitY=0;exitDx=0;exitDy=0;entryX=0.75;entryY=1;entryDx=0;entryDy=0;" edge="1" parent="1" source="_Ickoj4FJPJj25-dtZfV-16" target="_Ickoj4FJPJj25-dtZfV-7">
          <mxGeometry width="50" height="50" relative="1" as="geometry">
            <mxPoint x="340" y="980" as="sourcePoint" />
            <mxPoint x="390" y="930" as="targetPoint" />
          </mxGeometry>
        </mxCell>
      </root>
    </mxGraphModel>
  </diagram>
</mxfile>
